<svg width="17" height="17" viewBox="0 0 17 17" fill="none" xmlns="http://www.w3.org/2000/svg">
<rect width="17" height="17" rx="2" fill="black"/>
<path d="M9.05089 3.20363C8.77938 2.93212 8.33845 2.93212 8.06694 3.20363L6.6768 4.59377C6.40529 4.86528 6.40529 5.30621 6.6768 5.57772C6.94831 5.84924 7.38925 5.84924 7.66076 5.57772L7.86493 5.37355V7.86493H5.37355L5.57772 7.66076C5.84924 7.38925 5.84924 6.94831 5.57772 6.6768C5.30621 6.40529 4.86528 6.40529 4.59377 6.6768L3.20363 8.06694C2.93212 8.33845 2.93212 8.77938 3.20363 9.05089L4.59377 10.441C4.86528 10.7125 5.30621 10.7125 5.57772 10.441C5.84924 10.1695 5.84924 9.72858 5.57772 9.45707L5.37355 9.2529H7.86493V11.7465L7.66076 11.5423C7.38925 11.2708 6.94831 11.2708 6.6768 11.5423C6.40529 11.8138 6.40529 12.2547 6.6768 12.5262L8.06694 13.9164C8.33845 14.1879 8.77938 14.1879 9.05089 13.9164L10.441 12.5262C10.7125 12.2547 10.7125 11.8138 10.441 11.5423C10.1695 11.2708 9.72858 11.2708 9.45707 11.5423L9.2529 11.7465V9.25507H11.7465L11.5423 9.45924C11.2708 9.73076 11.2708 10.1717 11.5423 10.4432C11.8138 10.7147 12.2547 10.7147 12.5262 10.4432L13.9164 9.05306C14.1879 8.78155 14.1879 8.34062 13.9164 8.06911L12.5262 6.67897C12.2547 6.40746 11.8138 6.40746 11.5423 6.67897C11.2708 6.95048 11.2708 7.39142 11.5423 7.66293L11.7465 7.8671H9.25507V5.37355L9.45924 5.57772C9.73076 5.84924 10.1717 5.84924 10.4432 5.57772C10.7147 5.30621 10.7147 4.86528 10.4432 4.59377L9.05306 3.20363H9.05089Z" fill="white"/>
</svg>
